<svg width="2163" height="600" viewBox="0 0 2163 600" fill="none" xmlns="http://www.w3.org/2000/svg">
<circle cx="250" cy="300" r="250" fill="black"/>
<circle cx="250" cy="300" r="250" fill="white"/>
<path d="M385.769 238.766H296.634L376.787 137.271C378.446 135.122 376.949 132 374.238 132H219.071C217.938 132 216.846 132.608 216.279 133.622L111.446 315.08C110.192 317.229 111.729 319.946 114.238 319.946H184.801L148.629 464.95C147.861 468.113 151.664 470.343 154.011 468.073L387.994 244.322C390.098 242.335 388.682 238.766 385.769 238.766Z" fill="black"/>
<path d="M710.4 442.8C689.867 442.8 671.467 439.467 655.2 432.8C638.933 426.133 625.867 416.267 616 403.2C606.4 390.133 601.333 374.4 600.8 356H673.6C674.667 366.4 678.267 374.4 684.4 380C690.533 385.333 698.533 388 708.4 388C718.533 388 726.533 385.733 732.4 381.2C738.267 376.4 741.2 369.867 741.2 361.6C741.2 354.667 738.8 348.933 734 344.4C729.467 339.867 723.733 336.133 716.8 333.2C710.133 330.267 700.533 326.933 688 323.2C669.867 317.6 655.067 312 643.6 306.4C632.133 300.8 622.267 292.533 614 281.6C605.733 270.667 601.6 256.4 601.6 238.8C601.6 212.667 611.067 192.267 630 177.6C648.933 162.667 673.6 155.2 704 155.2C734.933 155.2 759.867 162.667 778.8 177.6C797.733 192.267 807.867 212.8 809.2 239.2H735.2C734.667 230.133 731.333 223.067 725.2 218C719.067 212.667 711.2 210 701.6 210C693.333 210 686.667 212.267 681.6 216.8C676.533 221.067 674 227.333 674 235.6C674 244.667 678.267 251.733 686.8 256.8C695.333 261.867 708.667 267.333 726.8 273.2C744.933 279.333 759.6 285.2 770.8 290.8C782.267 296.4 792.133 304.533 800.4 315.2C808.667 325.867 812.8 339.6 812.8 356.4C812.8 372.4 808.667 386.933 800.4 400C792.4 413.067 780.667 423.467 765.2 431.2C749.733 438.933 731.467 442.8 710.4 442.8ZM923.294 248.4C929.96 238 939.16 229.6 950.894 223.2C962.627 216.8 976.36 213.6 992.094 213.6C1010.49 213.6 1027.16 218.267 1042.09 227.6C1057.03 236.933 1068.76 250.267 1077.29 267.6C1086.09 284.933 1090.49 305.067 1090.49 328C1090.49 350.933 1086.09 371.2 1077.29 388.8C1068.76 406.133 1057.03 419.6 1042.09 429.2C1027.16 438.533 1010.49 443.2 992.094 443.2C976.627 443.2 962.894 440 950.894 433.6C939.16 427.2 929.96 418.933 923.294 408.8V546.4H854.894V216.8H923.294V248.4ZM1020.89 328C1020.89 310.933 1016.09 297.6 1006.49 288C997.16 278.133 985.56 273.2 971.694 273.2C958.094 273.2 946.494 278.133 936.894 288C927.56 297.867 922.894 311.333 922.894 328.4C922.894 345.467 927.56 358.933 936.894 368.8C946.494 378.667 958.094 383.6 971.694 383.6C985.294 383.6 996.894 378.667 1006.49 368.8C1016.09 358.667 1020.89 345.067 1020.89 328ZM1112.78 328C1112.78 305.067 1117.04 284.933 1125.58 267.6C1134.38 250.267 1146.24 236.933 1161.18 227.6C1176.11 218.267 1192.78 213.6 1211.18 213.6C1226.91 213.6 1240.64 216.8 1252.38 223.2C1264.38 229.6 1273.58 238 1279.98 248.4V216.8H1348.38V440H1279.98V408.4C1273.31 418.8 1263.98 427.2 1251.98 433.6C1240.24 440 1226.51 443.2 1210.78 443.2C1192.64 443.2 1176.11 438.533 1161.18 429.2C1146.24 419.6 1134.38 406.133 1125.58 388.8C1117.04 371.2 1112.78 350.933 1112.78 328ZM1279.98 328.4C1279.98 311.333 1275.18 297.867 1265.58 288C1256.24 278.133 1244.78 273.2 1231.18 273.2C1217.58 273.2 1205.98 278.133 1196.38 288C1187.04 297.6 1182.38 310.933 1182.38 328C1182.38 345.067 1187.04 358.667 1196.38 368.8C1205.98 378.667 1217.58 383.6 1231.18 383.6C1244.78 383.6 1256.24 378.667 1265.58 368.8C1275.18 358.933 1279.98 345.467 1279.98 328.4ZM1466.26 254C1474.26 241.733 1484.26 232.133 1496.26 225.2C1508.26 218 1521.6 214.4 1536.26 214.4V286.8H1517.46C1500.4 286.8 1487.6 290.533 1479.06 298C1470.53 305.2 1466.26 318 1466.26 336.4V440H1397.86V216.8H1466.26V254ZM1705.36 440L1637.36 346.4V440H1568.96V144H1637.36V307.6L1704.96 216.8H1789.36L1696.56 328.8L1790.16 440H1705.36ZM1884.62 144V440H1816.22V144H1884.62ZM2162.19 216.8L2022.19 546H1948.59L1999.79 432.4L1908.99 216.8H1985.39L2036.99 356.4L2088.19 216.8H2162.19Z" fill="white"/>
</svg>
